<svg xmlns="http://www.w3.org/2000/svg" width="98.995" height="98.995" viewBox="0 0 98.995 98.995"><g transform="translate(4089 -6817.767)"><circle cx="49.498" cy="49.498" r="49.498" transform="translate(-4089 6817.767)" fill="#fff"/><path d="M-4059.478,6889.109a.474.474,0,0,0-.441.3,1.7,1.7,0,0,1-1.6.763c-1.282,0-2.558-1.28-3.792-2.518l-.624-.612c-.253-.247-.5-.491-.753-.725a9.38,9.38,0,0,0,.675-1.362c.3-.752.654-1.824,1.158-3.426.378-1.294.7-2.254.993-3.011,1.111-.311,2.268-.927,2.268-1.753a1,1,0,0,0-1.078-1c-.851,0-1.543.981-1.922,1.931l-1.233.188c-2.332.358-4.976.764-5.287,3.04a1.413,1.413,0,0,0-.019.275,2.229,2.229,0,0,0,.419,1.438,1.949,1.949,0,0,0,1.337.793,1.02,1.02,0,0,0,.257.021.485.485,0,0,0,.5-.458.472.472,0,0,0-.123-.364.454.454,0,0,0-.329-.151h0l-.151-.015a1.007,1.007,0,0,1-.7-.4,1.27,1.27,0,0,1-.233-.823.678.678,0,0,1,.014-.165c.217-1.563,2.478-1.918,4.476-2.232l.107-.016c.19-.028.383-.057.575-.09-.3.834-.575,1.727-.811,2.5-.613,1.985-.84,2.638-1.117,3.351a9.979,9.979,0,0,1-.519,1.1,3.477,3.477,0,0,0-2.074-.93,1.843,1.843,0,0,0-1.873,1.873c0,.7.306,1.548,1.779,1.655a3.091,3.091,0,0,0,2.309-1.09c.016-.016.032-.033.048-.052.213.194.426.405.65.625.132.131.267.264.4.392l.141.142c1.341,1.342,2.86,2.864,4.52,2.864a2.688,2.688,0,0,0,2.5-1.37.56.56,0,0,0,.039-.175A.51.51,0,0,0-4059.478,6889.109Zm-3.193-12.4a.053.053,0,0,1,.059.058,1.283,1.283,0,0,1-.732.575C-4063.113,6876.96-4062.849,6876.7-4062.671,6876.7Zm-6.853,9.017a2.951,2.951,0,0,1,1.546.765c-.016.022-.032.042-.046.062a2.207,2.207,0,0,1-1.578.755c-.368,0-.806-.119-.806-.675A.886.886,0,0,1-4069.524,6885.721Z" fill="#6d6f72"/><path d="M-4060.77,6880.037a.681.681,0,0,0,.688-.689.681.681,0,0,0-.688-.69.7.7,0,0,0-.705.69A.7.7,0,0,0-4060.77,6880.037Z" fill="#6d6f72"/><path d="M-4045.063,6884.182a.523.523,0,0,0-.637.258c-.825,1.9-1.758,2.785-2.936,2.785h-.059a1.313,1.313,0,0,1-.956-.366,1.246,1.246,0,0,1-.291-.931,4.281,4.281,0,0,1,.142-.9c1.072-.271,4.079-1.211,4.079-3.2a1.317,1.317,0,0,0-1.484-1.312c-1.508,0-2.884,2.034-3.445,3.939-.762,1.666-1.472,2.774-2.442,2.774-.28,0-.339-.269-.339-.494a8.011,8.011,0,0,1,.465-1.86c.008-.019.017-.034.025-.053s.01-.055.017-.081c.289-.846.577-1.66.862-2.463.16-.452.319-.9.476-1.348l.809-2.365a.478.478,0,0,0-.02-.375.5.5,0,0,0-.29-.254.514.514,0,0,0-.614.3l-.809,2.367-.465,1.323c-.3.848-.595,1.689-.872,2.5-.767,1.68-1.478,2.8-2.453,2.8-.281,0-.339-.269-.339-.494a11.383,11.383,0,0,1,.831-2.922c.2-.568.365-1.023.494-1.385.167-.464.278-.774.344-.97h1.162a.482.482,0,0,0,.486-.487.487.487,0,0,0-.486-.486h-.816c.443-1.206.6-1.676.642-1.874l0,0,0,0,0-.015.008,0a.479.479,0,0,0-.055-.44.494.494,0,0,0-.406-.213.48.48,0,0,0-.465.336c-.032.11-.618,1.791-.766,2.2h-1.089a.45.45,0,0,0-.148.03.463.463,0,0,0-.148-.03h-.815c.443-1.208.6-1.676.642-1.874l0,0,0,0,0-.015.007,0a.476.476,0,0,0-.055-.44.492.492,0,0,0-.4-.213.479.479,0,0,0-.465.336c-.033.11-.618,1.791-.767,2.2h-1.089a.487.487,0,0,0-.486.486.481.481,0,0,0,.486.487h.755l-.716,2.01c-.117.3-.233.617-.342.938a.5.5,0,0,0-.042.065c-.526,1.164-1.245,2.758-2.1,2.758-.163,0-.308-.038-.308-.494,0-.578.238-1.246,1.38-4.455l.4-1.131a.46.46,0,0,0-.046-.43.5.5,0,0,0-.416-.2.47.47,0,0,0-.444.32l-.028.071a27.517,27.517,0,0,0-1.821,5.821,1.481,1.481,0,0,0,.373,1.107,1.221,1.221,0,0,0,.908.367,2.143,2.143,0,0,0,1.662-.93,1.224,1.224,0,0,0,1.235.93,2.523,2.523,0,0,0,1.979-1.034,1.235,1.235,0,0,0,1.261,1.034,2.508,2.508,0,0,0,1.955-1,1.231,1.231,0,0,0,1.253,1,2.768,2.768,0,0,0,2.294-1.437,2,2,0,0,0,.472.822,2.184,2.184,0,0,0,1.611.615c1.634,0,2.878-1.069,3.914-3.365l.015-.039a.443.443,0,0,0,.03-.151A.523.523,0,0,0-4045.063,6884.182Zm-2.142-2.7c.425,0,.511.13.511.339,0,.927-1.4,1.618-2.7,2.059C-4048.982,6882.973-4048.161,6881.485-4047.205,6881.485Zm-9.879,2.936c-.768,1.683-1.479,2.8-2.456,2.8-.28,0-.339-.269-.339-.494a11.361,11.361,0,0,1,.832-2.922c.2-.567.363-1.021.493-1.382.167-.465.278-.777.344-.973h1.162a.509.509,0,0,0,.148-.029.506.506,0,0,0,.148.029h.755l-.717,2.01c-.112.288-.225.6-.33.9A.469.469,0,0,0-4057.084,6884.421Z" fill="#6d6f72"/><path d="M-4036.474,6878.646a.612.612,0,0,0-.608-.438.633.633,0,0,0-.617.432l-3.64,8.642a.7.7,0,0,0-.05.273.639.639,0,0,0,.171.448.593.593,0,0,0,.459.2.578.578,0,0,0,.593-.4l.789-1.909h4.579l.791,1.914a.628.628,0,0,0,.6.39.621.621,0,0,0,.453-.189.619.619,0,0,0,.19-.454.523.523,0,0,0-.063-.26Zm1.21,6.1h-3.635l1.817-4.389Z" fill="#6d6f72"/><path d="M-4024.785,6886.963h-4.682v-8.113a.625.625,0,0,0-.183-.459.655.655,0,0,0-.913.006.619.619,0,0,0-.189.453v8.705a.614.614,0,0,0,.189.453.618.618,0,0,0,.453.19h5.325a.644.644,0,0,0,.457-.174.59.59,0,0,0,.185-.444.585.585,0,0,0-.186-.443A.635.635,0,0,0-4024.785,6886.963Z" fill="#6d6f72"/><path d="M-4012.625,6878.208a.64.64,0,0,0-.576.336l-3.747,7.59-3.825-7.6a.634.634,0,0,0-.57-.325.63.63,0,0,0-.45.18.612.612,0,0,0-.192.462v8.705a.622.622,0,0,0,.189.454.646.646,0,0,0,.915,0,.628.628,0,0,0,.181-.451v-6.222l3.125,6.252a.619.619,0,0,0,.591.39.637.637,0,0,0,.564-.324l3.14-6.416v6.32a.622.622,0,0,0,.189.454.639.639,0,0,0,.466.189.6.6,0,0,0,.45-.192.632.632,0,0,0,.18-.451v-8.705a.622.622,0,0,0-.183-.459A.608.608,0,0,0-4012.625,6878.208Z" fill="#6d6f72"/><path d="M-4007.807,6878.391a.664.664,0,0,0-.91,0,.615.615,0,0,0-.191.462v8.705a.621.621,0,0,0,.188.454.623.623,0,0,0,.454.189.617.617,0,0,0,.462-.192.632.632,0,0,0,.18-.451v-8.705A.622.622,0,0,0-4007.807,6878.391Z" fill="#6d6f72"/><path d="M-4049.822,6843.342a.5.5,0,0,0,.26.074h0a.52.52,0,0,0,.49-.394.492.492,0,0,0-.229-.565,2.842,2.842,0,0,0-1.452-.4,2.763,2.763,0,0,0-2.449,1.462.5.5,0,0,0,.009.5.551.551,0,0,0,.462.265.471.471,0,0,0,.424-.263,1.757,1.757,0,0,1,1.552-.94A1.831,1.831,0,0,1-4049.822,6843.342Z" fill="#6d6f72"/><path d="M-4038.116,6857.97a.513.513,0,0,0-.75.315.5.5,0,0,0,.226.569,1.586,1.586,0,0,0,.831.234,1.893,1.893,0,0,0,1.444-.721,1.757,1.757,0,0,0,.372-1.472.469.469,0,0,0-.47-.384.555.555,0,0,0-.428.2.5.5,0,0,0-.1.43.7.7,0,0,1-.155.577A.789.789,0,0,1-4038.116,6857.97Z" fill="#6d6f72"/><path d="M-4036.857,6860.775a.766.766,0,0,1-.2.589.916.916,0,0,1-.912.221.5.5,0,0,0-.638.426.5.5,0,0,0,.359.562,1.982,1.982,0,0,0,.546.077,1.927,1.927,0,0,0,1.406-.6,1.729,1.729,0,0,0,.466-1.306.535.535,0,0,0-.9-.334A.474.474,0,0,0-4036.857,6860.775Z" fill="#6d6f72"/><path d="M-4049.242,6846.336a.821.821,0,0,1-.962.74.728.728,0,0,1-.425-.36.893.893,0,0,1-.068-.669.478.478,0,0,0-.068-.435.536.536,0,0,0-.432-.211.5.5,0,0,0-.487.36,1.875,1.875,0,0,0,.191,1.5,1.734,1.734,0,0,0,1.145.835,1.621,1.621,0,0,0,.332.034,1.867,1.867,0,0,0,1.8-1.766.479.479,0,0,0-.123-.363A.536.536,0,0,0-4049.242,6846.336Z" fill="#6d6f72"/><path d="M-4020.039,6863.63a1.727,1.727,0,0,0-1.248-.778,1.584,1.584,0,0,0-.322-.012,6.383,6.383,0,0,0-.587-3.412,3.6,3.6,0,0,0-2.939-1.939,6.572,6.572,0,0,0-3.817,1.192c-.147.091-.324.215-.52.353a4.949,4.949,0,0,1-2.29,1.106.882.882,0,0,1-.743-.375.546.546,0,0,0-.135-.125c.007-.041.012-.083.018-.125.013-.1.019-.206.025-.31a2.253,2.253,0,0,1,.043-.4.868.868,0,0,1,.392-.475,3.327,3.327,0,0,0,.264-.221,1.94,1.94,0,0,0,.32-2.178,1.583,1.583,0,0,0-1.911-.628c-.02.007-.04.013-.061.021-.032-.07-.063-.135-.092-.194a5.34,5.34,0,0,0-2.948-2.446,6.958,6.958,0,0,0-4.309-.133c-.184.045-.371.1-.555.159a2.633,2.633,0,0,0-3.06-.043.517.517,0,0,0-.2.589.493.493,0,0,0,.747.28,1.791,1.791,0,0,1,1.39-.273,2.779,2.779,0,0,0-.409.356,2.293,2.293,0,0,0-.691,1.943,1.341,1.341,0,0,0,1.368.962,1.623,1.623,0,0,0,.865-.242,2.185,2.185,0,0,0,.783-1.86,2.358,2.358,0,0,0-.156-.831c.229-.063.46-.114.681-.16a5.64,5.64,0,0,1,3.143.195,5.059,5.059,0,0,1,1.882,1.19,3.183,3.183,0,0,1,.663,1.036,1.125,1.125,0,0,0-.436,1.026.9.9,0,0,0,.891.688.745.745,0,0,0,.682-.4,1.378,1.378,0,0,0,.086-.86,1,1,0,0,1,.308-.052.516.516,0,0,1,.373.134.584.584,0,0,1,.13.444.878.878,0,0,1-.428.7,3.066,3.066,0,0,0-.359.345,1.941,1.941,0,0,0-.4,1.215l-.006.062a8.423,8.423,0,0,1-.266,1.417,4.82,4.82,0,0,1-2.46,3.033,4.27,4.27,0,0,1-1.856.437h-.062c-.221,0-.44-.016-.659-.035a16.75,16.75,0,0,1-2.876-2.3,1.575,1.575,0,0,0,.5.088,1.89,1.89,0,0,0,1.444-.721,1.75,1.75,0,0,0,.372-1.471.468.468,0,0,0-.47-.384.551.551,0,0,0-.427.2.506.506,0,0,0-.1.431.7.7,0,0,1-.155.577.792.792,0,0,1-.971.25.512.512,0,0,0-.751.314.54.54,0,0,0-.014.126c-.309-.331-.569-.632-.766-.871a18.882,18.882,0,0,1-3.405-7.624,2.377,2.377,0,0,1,.013-1.5.562.562,0,0,1,.152,0l.117.013a.673.673,0,0,0,.126.015,2.463,2.463,0,0,0,1-.223,1.735,1.735,0,0,0,.967-.847c.248-.594-.044-1.078-.449-1.748-.133-.22-.283-.469-.446-.769a5.284,5.284,0,0,1-.71-1.591,4.36,4.36,0,0,1,.811-2.428,11.356,11.356,0,0,1,1.108-1.708,15.315,15.315,0,0,1,1.732-1.87,13.668,13.668,0,0,1,2.375-1.96l1.623-1,.212-.117a2.318,2.318,0,0,0,1.247-1.138,1.758,1.758,0,0,0-.156-1.583,2.117,2.117,0,0,0-1.737-.778c-.206-.011-.419-.018-.635-.018a16.048,16.048,0,0,0-5.065.925,22.446,22.446,0,0,0-4.3,2.031,21.384,21.384,0,0,0-5.567,4.971,20.621,20.621,0,0,0-3.382,6.566,21.889,21.889,0,0,0,1.091,14.909,19.966,19.966,0,0,0,7.317,8.654,19.89,19.89,0,0,0,7.359,2.837,22,22,0,0,0,4.1.382,22.618,22.618,0,0,0,4.632-.481,22.124,22.124,0,0,0,4.431-1.577,20.289,20.289,0,0,0,7.767-6.179C-4020.41,6865.87-4019.5,6864.61-4020.039,6863.63Zm-19.144-29.136c.193,0,.384.006.568.017.3.018.726.068.875.288a.629.629,0,0,1,.038.544c-.069.177-.238.283-.742.561l-.22.121c-.023.013-.583.358-1.664,1.027a14.628,14.628,0,0,0-2.559,2.1,16.035,16.035,0,0,0-1.848,2,12.347,12.347,0,0,0-1.214,1.872,5.133,5.133,0,0,0-.929,3.086,5.855,5.855,0,0,0,.837,1.988c.171.314.326.572.472.814a2.85,2.85,0,0,1,.375.733c-.033.078-.254.176-.387.236a1.237,1.237,0,0,1-.546.108l-.273,0a1.279,1.279,0,0,0-.7.173c-.777.481-.721,1.719-.537,2.674.006.03.012.059.018.089a2.715,2.715,0,0,1-2.573-1.642.5.5,0,0,0-.868-.033.525.525,0,0,0-.042.5,3.7,3.7,0,0,0,3.711,2.176,19.73,19.73,0,0,0,3.393,7.03,19.333,19.333,0,0,0,4.366,3.924.676.676,0,0,0,.272.168,11.854,11.854,0,0,0,3.5,1.46c.225.052.452.095.574.118a19.37,19.37,0,0,0,6.512.134,14.038,14.038,0,0,0,3.875-1,13.624,13.624,0,0,0,1.754-.855c.292-.176.533-.342.748-.49a1.949,1.949,0,0,1,.892-.455.527.527,0,0,1,.076.006.659.659,0,0,1,.412.209c.047.083.133.441-.689,1.573-4.137,5.7-11.446,7.3-11.52,7.317a21.463,21.463,0,0,1-8.294.1,18.859,18.859,0,0,1-6.958-2.678,18.854,18.854,0,0,1-6.905-8.179,20.732,20.732,0,0,1-1.037-14.114,19.483,19.483,0,0,1,3.2-6.205,20.216,20.216,0,0,1,5.269-4.7,21.418,21.418,0,0,1,4.111-1.935A15.22,15.22,0,0,1-4039.183,6834.494Zm15.8,26.833a4.2,4.2,0,0,1-2.253-.823,3.668,3.668,0,0,0,.859-1.91,2.4,2.4,0,0,1,1.437.941,3.712,3.712,0,0,1,.646,1.642A1.673,1.673,0,0,1-4023.379,6861.327Zm-3.388-1.139a.459.459,0,0,0-.15.519.509.509,0,0,0,.264.272.506.506,0,0,0,.052.061,5.351,5.351,0,0,0,3.247,1.319,2.822,2.822,0,0,0,.74-.1c0,.325-.023.653-.051.978-.119.076-.242.16-.375.251-.2.137-.425.293-.692.455a13.072,13.072,0,0,1-1.627.788,13.291,13.291,0,0,1-3.629.926l-.151.021a1.745,1.745,0,0,1-.2-1.5,2.952,2.952,0,0,1,1.766-1.736.526.526,0,0,0,.331-.6.478.478,0,0,0-.643-.378,4.106,4.106,0,0,0-2.413,2.344,2.649,2.649,0,0,0,.06,1.985,18.184,18.184,0,0,1-2.962-.014,3.911,3.911,0,0,0,1.879-2.616.511.511,0,0,0-.1-.429.556.556,0,0,0-.426-.2.463.463,0,0,0-.467.389,2.884,2.884,0,0,1-1.484,2.017,3.012,3.012,0,0,1-1.427.314,8.643,8.643,0,0,1-1.482-.165c-.123-.044-.246-.092-.37-.142l.13-.029a5.387,5.387,0,0,0,2.114-1.072,6,6,0,0,0,1.954-3.068,2.551,2.551,0,0,0,2.54-.015,14.213,14.213,0,0,0,1.462-.884,8.87,8.87,0,0,1,2.174-1.169,4.3,4.3,0,0,1,.908-.186A2.668,2.668,0,0,1-4026.767,6860.188Zm-14.923-5.8a1.436,1.436,0,0,1-.216.945.6.6,0,0,1-.426.176.4.4,0,0,1-.256-.08c-.055-.045-.2-.165.039-.653a1.9,1.9,0,0,1,.78-.807A1.382,1.382,0,0,1-4041.69,6854.391Z" fill="#6d6f72"/><path d="M-4037.024,6843.135a1.6,1.6,0,0,0-1.4.93,2.11,2.11,0,0,0-.049,1.535,3.117,3.117,0,0,0,.764,1.176,9.142,9.142,0,0,0,1.356,1.068l.144.1a.876.876,0,0,0,.354.157.672.672,0,0,0,.124.011.928.928,0,0,0,.31-.059,4.486,4.486,0,0,0,2.423-1.894,2.382,2.382,0,0,0,.224-2.136,1.591,1.591,0,0,0-1.777-.9,2.269,2.269,0,0,0-.782.333c-.012.008-.077.05-.162.111a1.89,1.89,0,0,0-.289-.2A2.138,2.138,0,0,0-4037.024,6843.135Zm.728,1.154a.878.878,0,0,1,.185.138.467.467,0,0,1,.046.061,1.414,1.414,0,0,0,.184.218.553.553,0,0,0,.743-.031.568.568,0,0,0,.075-.1c.09-.079.251-.2.3-.233a1.247,1.247,0,0,1,.424-.186.553.553,0,0,1,.621.336,1.346,1.346,0,0,1-.187,1.138,3.468,3.468,0,0,1-1.775,1.4l-.081-.056a8.4,8.4,0,0,1-1.2-.937,2.088,2.088,0,0,1-.513-.773,1.046,1.046,0,0,1,.009-.759.553.553,0,0,1,.525-.318c.05,0,.1-.007.146-.007A1,1,0,0,1-4036.3,6844.289Z" fill="#6d6f72"/><path d="M-4031.253,6852.313a9.154,9.154,0,0,0,1.356,1.069l.153.1a.838.838,0,0,0,.341.151.722.722,0,0,0,.129.012.93.93,0,0,0,.309-.058,4.5,4.5,0,0,0,2.424-1.894,2.387,2.387,0,0,0,.224-2.136,1.583,1.583,0,0,0-1.777-.9,2.234,2.234,0,0,0-.781.332s-.073.047-.163.112a1.926,1.926,0,0,0-.289-.2,2.152,2.152,0,0,0-1.238-.233,1.6,1.6,0,0,0-1.4.93,2.1,2.1,0,0,0-.049,1.535A3.119,3.119,0,0,0-4031.253,6852.313Zm.244-2.272a.554.554,0,0,1,.525-.319c.05,0,.1-.005.146-.005a1.015,1.015,0,0,1,.5.109.878.878,0,0,1,.185.138.594.594,0,0,1,.049.066,1.492,1.492,0,0,0,.182.215.556.556,0,0,0,.743-.032.471.471,0,0,0,.075-.1c.09-.078.251-.2.3-.231a1.241,1.241,0,0,1,.423-.187.562.562,0,0,1,.623.336,1.348,1.348,0,0,1-.187,1.139,3.462,3.462,0,0,1-1.776,1.4l-.079-.055a8.48,8.48,0,0,1-1.2-.938,2.1,2.1,0,0,1-.514-.773A1.045,1.045,0,0,1-4031.009,6850.041Z" fill="#6d6f72"/></g></svg>