<?xml version="1.0" encoding="utf-8"?>
<!-- Generator: Adobe Illustrator 23.0.3, SVG Export Plug-In . SVG Version: 6.00 Build 0)  -->
<svg version="1.1" xmlns="http://www.w3.org/2000/svg" xmlns:xlink="http://www.w3.org/1999/xlink" x="0px" y="0px"
	 viewBox="0 0 217.5 217.5" style="enable-background:new 0 0 217.5 217.5;" xml:space="preserve">
<style type="text/css">
	.st0{fill:#FFFFFF;}
	.st1{display:none;}
	.st2{filter:url(#Контур_456);}
	.st3{fill:#F2C5C7;}
	.st4{fill:#FFE3C4;}
	.st5{fill:#9CC1E6;}
	.st6{fill:#040505;}
	.st7{fill:#EE798A;}
	.st8{fill:#0D0D0D;}
</style>
<filter  filterUnits="userSpaceOnUse" height="286.489" id="Контур_456" width="286.489" x="0" y="0">
	<feOffset  dy="19" input="SourceAlpha"></feOffset>
	<feGaussianBlur  result="blur" stdDeviation="11.5"></feGaussianBlur>
	<feFlood  flood-opacity="0.161"></feFlood>
	<feComposite  in2="blur" operator="in"></feComposite>
	<feComposite  in="SourceGraphic" operator="over"></feComposite>
</filter>
<g id="Слой_2">
</g>
<g id="Слой_3">
	<circle class="st0" cx="108.7" cy="108.7" r="108.7"/>
</g>
<g id="Слой_1">
	<g id="Сгруппировать_138" transform="translate(2011.5 -3914.07)">
		<g id="Сгруппировать_133" class="st1">
			<g transform="matrix(1, 0, 0, 1, -2011.5, 3914.07)" class="st2">
				<path id="Контур_456-2_1_" class="st0" d="M108.7-0.2c60.1,0,108.7,48.7,108.7,108.7s-48.7,108.7-108.7,108.7
					S0,168.6,0,108.5C0,48.5,48.7-0.2,108.7-0.2C108.7-0.2,108.7-0.2,108.7-0.2z"/>
			</g>
		</g>
		<g id="Сгруппировать_137">
			<path id="Контур_271" class="st3" d="M-1859,4019.4c-0.6-0.8-1.5-1.2-2.5-1.2c-1.8-0.1-3.2,1-4.2,1.8
				c-0.1,0.1-0.2,0.2-0.3,0.3c-1.3,1-3.8,1.9-8.7,3.5c-3.3,1.1-6.7,1.6-10.1,1.5c-1.9,0-3.8-0.1-5.7-0.4c-6.5-1-12.6-4-17.3-8.6
				c-2.6-2.6-3.9-4.9-6.6-9.4c-2-3.4-3.5-7-4.5-10.8c-0.5-1.9-1.4-6.3,0-7.1c0.2-0.1,0.4-0.1,0.6-0.1c0.5,0,0.9-0.1,1.4-0.2
				c1.6-0.3,2.4-0.4,2.7-0.9c0.4-0.6,0-1.5-0.9-3.2c-0.2-0.3-0.3-0.6-0.5-0.9c-1.5-2.9-2.2-4.3-2.3-5.4c-0.2-1.3,0.2-2.6,2.6-6.3
				c1.7-2.9,3.8-5.6,6.2-8c3-3,6.3-5.6,9.9-7.9c1.8-1.2,2.8-1.8,2.6-2.4c-0.2-0.5-1.2-0.8-3-0.8c-4.6,0.2-9.1,1.2-13.3,2.9
				c-6.3,2.6-11.9,6.5-16.4,11.5c-2.4,2.5-4.6,5.3-6.4,8.3c-5.1,8.7-7.4,18.8-6.4,28.9c0.2,2.8,0.6,5.6,1.4,8.4
				c2.2,7.4,6.8,13.9,13.7,19.5c3.4,2.8,7.2,5.1,11.2,6.9c5.6,2.4,11.6,3.6,17.7,3.6c5.8,0,11.5-1,16.9-3.1c5.2-2,9-4.7,13.9-8.1
				c2.4-1.7,4.4-3.8,6.2-6.2C-1860,4023.5-1858.1,4021-1859,4019.4z"/>
			<path id="Контур_272" class="st4" d="M-1888,4007.6c0.3,3.3-0.9,6.6-3.1,9.1c-2.4,2.5-5.7,3.8-9.1,3.6
				c-4.1-0.4-6.6-3.1-8-4.5c-1.3-1.4-3.6-3.9-3.8-7.2c-0.3-5.3,4.9-11.6,11.8-11.8C-1893.8,3996.6-1888.7,4002-1888,4007.6z"/>
			<path id="Контур_273" class="st5" d="M-1888,4012.2c0.9,0.7,2.1,1.1,3.3,1.2c1.2,0,2.3-0.3,3.4-0.8
				c0.6-0.2,1.2-0.5,1.8-0.8c0.7-0.5,1.5-1,2.1-1.5c0.9-0.7,1.4-1,1.8-1.3c1.2-0.8,2.6-1.3,4-1.4c1-0.1,2.1,0,3.1,0.3
				c2,0.6,3.6,2.1,4.3,4c0.2,0.6,0,0.5,0.3,1.5c0.5,1.8,1.2,2.4,1.2,3.5c0,0.6-0.2,1.2-0.6,1.8c-0.4,0.6-1,1-1.6,1.2
				c-2.7,1.3-4.1,1.9-5,2.3c-3.2,1.3-2.7,1.3-3.7,1.5c-1.4,0.3-2.9,0.4-4.6,0.7c-0.1,0-0.5,0.1-1,0.1c-1,0.1-2.1,0.1-3.1,0
				c-0.8,0-1.2,0-1.7,0c-2.5,0-5-0.1-7.5-0.4c-1.5-0.2-2.9-0.5-4.4-0.9c-2-0.6-4.8-1.6-4.7-2.2c0.1-0.3,1.3-0.1,3.5-0.6
				c1.5-0.2,2.8-0.7,4.1-1.5c1.3-0.9,2.1-1.9,3.4-3.8C-1889.1,4014.2-1888.5,4013.2-1888,4012.2z"/>
			<g id="Сгруппировать_134">
				<path id="Контур_274" class="st6" d="M-1954.9,4046.6c1.1-0.1,2,0.7,2.1,1.7c0,0.1,0,0.1,0,0.2c0,1.7-2.6,3-5.1,3.7
					c-0.8,2.1-1.7,4.7-2.3,7c-1.2,3.7-1.9,6.1-2.6,7.8c-0.5,1.1-1,2.2-1.7,3.3c1,0.9,1.9,1.8,2.9,2.8c2.9,2.9,6.1,6.3,9.3,6.3
					c1.8,0,3.4-0.7,4-1.9c0.1-0.3,0.4-0.5,0.7-0.5c0.4,0,0.7,0.4,0.7,0.8c0,0.1,0,0.2-0.1,0.3c-0.9,2-3.2,2.9-5.3,2.9
					c-3.8,0-7.3-3.6-10.3-6.7c-0.9-0.9-1.8-1.8-2.7-2.6c-0.1,0.1-0.2,0.3-0.3,0.4c-1.2,1.5-3.1,2.3-5,2.4c-2.4-0.2-3.7-1.3-3.7-3.4
					c0-2.1,1.6-3.9,3.8-3.9c0,0,0.1,0,0.1,0c1.8,0.2,3.5,1,4.8,2.3c0.5-0.9,1-1.9,1.4-2.9c0.7-1.7,1.2-3.3,2.6-7.6
					c0.6-2,1.3-4.3,2.1-6.3c-0.7,0.1-1.5,0.2-2.2,0.4c-4.7,0.7-10,1.6-10.5,5.4c0,0.1,0,0.3,0,0.4c0,0.7,0.2,1.5,0.6,2.1
					c0.4,0.6,1.1,1,1.8,1.1l0.4,0c0.4,0,0.7,0.3,0.7,0.7c0,0,0,0.1,0,0.1c0,0.4-0.4,0.7-0.8,0.7c-0.2,0-0.3,0-0.5,0
					c-1.1-0.1-2.2-0.7-2.8-1.7c-0.6-0.9-1-2-0.9-3c0-0.2,0-0.4,0-0.6c0.7-4.9,6.4-5.8,11.7-6.6l3-0.5
					C-1958.2,4048.9-1956.7,4046.6-1954.9,4046.6z M-1966.4,4070.6c-1.5-1.2-2.8-2.1-4-2.1c-1.3,0-2.4,1.1-2.4,2.4c0,0,0,0,0,0
					c0,1.4,1,1.9,2.2,1.9c1.5-0.1,2.9-0.7,3.9-1.8C-1966.7,4070.8-1966.5,4070.7-1966.4,4070.6L-1966.4,4070.6z M-1954.4,4048.5
					c0-0.3-0.2-0.5-0.5-0.5c0,0,0,0,0,0c-0.8,0-1.7,1.2-2.3,2.4C-1955.6,4050.1-1954.4,4049.1-1954.4,4048.5L-1954.4,4048.5z"/>
				<path id="Контур_275" class="st6" d="M-1947.7,4066.4c0,0.1,0,0.2-0.1,0.3c-1.7,3.8-3.5,7.4-6.5,7.4
					c-1.4,0-2.6-1.2-2.6-2.6c0-0.1,0-0.3,0-0.4c0.1-2.8,2.6-9.2,4.2-13.3c0.1-0.3,0.4-0.5,0.7-0.5c0.4,0,0.7,0.2,0.8,0.6
					c0,0.1,0,0.2-0.1,0.3c-3.4,9.7-4.1,11.3-4.1,12.8c0,1,0.3,1.5,1.1,1.5c2.2,0,3.8-3.6,5.1-6.6c0.1-0.3,0.4-0.5,0.7-0.5
					c0.1,0,0.2,0,0.3,0.1C-1947.9,4065.8-1947.7,4066.1-1947.7,4066.4z M-1951.8,4054.4c0-0.7,0.6-1.2,1.2-1.2
					c0.7,0,1.2,0.5,1.2,1.2c0,0.7-0.5,1.2-1.2,1.2c0,0,0,0,0,0C-1951.2,4055.6-1951.8,4055.1-1951.8,4054.4L-1951.8,4054.4z"/>
				<path id="Контур_276" class="st6" d="M-1940.4,4066.4c0,0.1,0,0.2-0.1,0.3c-2.1,4.4-4,7.4-7.3,7.4c-1.7,0-2.6-1.3-2.6-3
					c0.3-2.5,1-5,2-7.3l1.8-5.1h-2.2c-0.4,0-0.7-0.3-0.7-0.7c0,0,0,0,0,0c0-0.4,0.3-0.7,0.7-0.7h2.7c0.1-0.1,1.8-5.1,1.8-5.3
					c0.1-0.3,0.4-0.5,0.7-0.5c0.4,0,0.7,0.3,0.8,0.7c0,0.1,0,0.2,0,0.3c0.1-0.2-1.4,4.1-1.7,4.8h2.4c0.4,0,0.7,0.3,0.7,0.7
					c0,0.4-0.3,0.7-0.7,0.7c0,0,0,0,0,0h-2.9c-0.2,0.7-0.8,2.3-2,5.6c-1.5,4.1-1.9,5.7-1.9,6.8c0,1,0.4,1.5,1.1,1.5
					c2.6,0,4.3-2.9,5.9-6.6c0.1-0.3,0.4-0.4,0.7-0.4c0.1,0,0.2,0,0.3,0.1C-1940.5,4065.9-1940.4,4066.1-1940.4,4066.4z"/>
				<path id="Контур_277" class="st6" d="M-1933,4066.4c0,0.1,0,0.2-0.1,0.3c-2.1,4.4-4,7.4-7.3,7.4c-1.7,0-2.6-1.3-2.6-3
					c0.3-2.5,1-5,2-7.3l1.8-5.1h-2.2c-0.4,0-0.7-0.3-0.7-0.7c0,0,0,0,0,0c0-0.4,0.3-0.7,0.7-0.7h2.7c0.1-0.1,1.8-5.1,1.8-5.3
					c0.1-0.3,0.4-0.5,0.7-0.5c0.4,0,0.7,0.3,0.8,0.7c0,0.1,0,0.2,0,0.3c0.1-0.2-1.4,4.1-1.7,4.8h2.4c0.4,0,0.7,0.3,0.7,0.7
					c0,0.4-0.3,0.7-0.7,0.7c0,0,0,0,0,0h-2.9c-0.2,0.7-0.8,2.3-2,5.6c-1.5,4.1-1.9,5.7-1.9,6.8c0,1,0.4,1.5,1.1,1.5
					c2.6,0,4.3-2.9,5.9-6.6c0.1-0.3,0.4-0.4,0.7-0.4c0.1,0,0.2,0,0.3,0.1C-1933.2,4065.9-1933,4066.1-1933,4066.4z"/>
				<path id="Контур_278" class="st6" d="M-1925.7,4066.4c0,0.1,0,0.2-0.1,0.3c-2.1,4.4-4,7.4-7.3,7.4c-1.7,0-2.6-1.3-2.6-3
					c0-1,0.4-2.3,1.2-5.1c1-2.8,2-5.8,3-8.7l1.8-5.4c0.2-0.4,0.6-0.6,1-0.5c0.4,0.1,0.6,0.6,0.5,1c0,0,0,0,0,0l-1.8,5.4
					c-1,2.8-2,5.7-3,8.7c-0.6,1.5-1,3.1-1.2,4.6c0,1,0.4,1.5,1.1,1.5c2.6,0,4.3-2.9,5.9-6.6c0.1-0.3,0.4-0.4,0.7-0.4
					c0.1,0,0.2,0,0.3,0.1C-1925.9,4065.9-1925.7,4066.1-1925.7,4066.4z"/>
				<path id="Контур_279" class="st6" d="M-1914.5,4066.4c0,0.1,0,0.2-0.1,0.3c-2.3,5.1-5,7.4-8.6,7.4
					c-2.4,0.2-4.5-1.7-4.7-4.1c0-0.3,0-0.5,0-0.8c0.2-4.5,3.9-11.9,8.1-11.9c1.8,0,3,0.9,3,2.6c0,3.8-5.3,6-9.2,7
					c-0.2,0.8-0.3,1.5-0.4,2.3c-0.2,1.6,0.9,3.1,2.6,3.3c0.2,0,0.4,0,0.6,0c2.9,0.1,5.2-2,7.2-6.6c0.2-0.4,0.6-0.5,1-0.4
					C-1914.7,4065.9-1914.5,4066.1-1914.5,4066.4z M-1918.2,4060c0-1-0.7-1.1-1.5-1.1c-2.4,0-4.5,3.7-5.6,6.4
					C-1922.4,4064.4-1918.2,4062.6-1918.2,4060z"/>
				<path id="Контур_280" class="st6" d="M-1887.2,4073.1c0,0.3-0.1,0.6-0.3,0.8c-0.2,0.2-0.5,0.3-0.8,0.3
					c-0.5,0-0.9-0.3-1-0.7l-1.9-4.6h-10.9l-1.9,4.6c-0.1,0.4-0.6,0.7-1,0.7c-0.3,0-0.6-0.1-0.8-0.3c-0.2-0.2-0.3-0.5-0.3-0.8
					c0-0.2,0-0.3,0.1-0.5l8.3-19.7c0.1-0.5,0.6-0.8,1.1-0.8c0.5,0,0.9,0.3,1,0.8l8.3,19.7
					C-1887.2,4072.7-1887.2,4072.9-1887.2,4073.1z M-1901.3,4067h9.3l-4.7-11.3L-1901.3,4067z"/>
				<path id="Контур_281" class="st6" d="M-1881.6,4073.8c-0.2-0.2-0.3-0.5-0.3-0.8v-19.8c0-0.3,0.1-0.6,0.3-0.8
					c0.2-0.2,0.5-0.3,0.8-0.3c0.3,0,0.6,0.1,0.8,0.3c0.2,0.2,0.3,0.5,0.3,0.8v18.8h11c0.3,0,0.6,0.1,0.8,0.3
					c0.2,0.2,0.3,0.5,0.3,0.7c0,0.3-0.1,0.6-0.3,0.7c-0.2,0.2-0.5,0.3-0.8,0.3h-12.1C-1881.1,4074.2-1881.4,4074-1881.6,4073.8z"/>
				<path id="Контур_282" class="st6" d="M-1840.3,4052.5c0.2,0.2,0.3,0.5,0.3,0.8v19.8c0,0.3-0.1,0.6-0.3,0.8
					c-0.2,0.2-0.5,0.3-0.8,0.3c-0.3,0-0.6-0.1-0.8-0.3c-0.2-0.2-0.3-0.5-0.3-0.8v-15.9l-7.8,16c-0.2,0.3-0.6,0.5-1,0.5
					c-0.4,0-0.9-0.3-1-0.7l-7.8-15.6v15.7c0,0.3-0.1,0.6-0.3,0.8c-0.2,0.2-0.5,0.3-0.8,0.3c-0.3,0-0.6-0.1-0.8-0.3
					c-0.2-0.2-0.3-0.5-0.3-0.8v-19.8c0-0.3,0.1-0.6,0.3-0.8c0.2-0.2,0.5-0.3,0.8-0.3c0.4,0,0.8,0.2,1,0.6l9,17.9l8.8-17.9
					c0.2-0.4,0.6-0.6,1-0.6C-1840.8,4052.2-1840.5,4052.3-1840.3,4052.5z"/>
				<path id="Контур_283" class="st6" d="M-1831.9,4073.8c-0.2-0.2-0.3-0.5-0.3-0.8v-19.8c0-0.3,0.1-0.6,0.3-0.8
					c0.2-0.2,0.5-0.3,0.8-0.3c0.3,0,0.6,0.1,0.8,0.3c0.2,0.2,0.3,0.5,0.3,0.8v19.8c0,0.3-0.1,0.6-0.3,0.8c-0.2,0.2-0.5,0.3-0.8,0.3
					C-1831.4,4074.2-1831.7,4074-1831.9,4073.8z"/>
			</g>
			<path id="Контур_284" class="st6" d="M-1924.7,3970.9c-2.8-1.7-6.3-0.8-8,2c-0.1,0.1-0.1,0.2-0.1,0.3
				c-0.4,0.8,0.7,1.4,1.1,0.7c1.2-2.2,3.9-3.1,6.1-1.9c0.1,0,0.2,0.1,0.3,0.1c0.3,0.2,0.7,0.1,0.9-0.2
				C-1924.3,3971.5-1924.4,3971.1-1924.7,3970.9L-1924.7,3970.9L-1924.7,3970.9z"/>
			<path id="Контур_285" class="st6" d="M-1900,4007.4c2.5,1.5,5.9-1.1,5.3-3.9c-0.2-0.8-1.5-0.5-1.3,0.4
				c0.2,1.3-0.7,2.5-2,2.6c-0.4,0.1-0.9,0-1.3-0.2c-0.3-0.2-0.7,0-0.9,0.3C-1900.3,4006.8-1900.2,4007.2-1900,4007.4z"/>
			<path id="Контур_286" class="st6" d="M-1907.9,4013.5c2.5,1.5,5.9-1.1,5.3-3.9c-0.2-0.8-1.5-0.5-1.3,0.4
				c0.2,1.3-0.7,2.5-2,2.6c-0.4,0.1-0.9,0-1.3-0.2c-0.3-0.2-0.7-0.1-0.9,0.2C-1908.3,4012.9-1908.2,4013.3-1907.9,4013.5
				L-1907.9,4013.5z"/>
			<path id="Контур_287" class="st6" d="M-1899.2,4015.8c1.9,0.6,4-0.4,4.7-2.4c0.1-0.4,0.2-0.8,0.2-1.3
				c-0.1-0.8-1.4-0.9-1.3,0c0.1,1.3-0.9,2.4-2.3,2.5c-0.3,0-0.6,0-0.9-0.1c-0.4-0.1-0.7,0.1-0.8,0.5
				C-1899.7,4015.3-1899.5,4015.6-1899.2,4015.8z"/>
			<path id="Контур_288" class="st6" d="M-1929.4,3978.2c-0.6,2,0.5,4,2.5,4.6c0.1,0,0.1,0,0.2,0.1c2,0.3,3.9-1.1,4.2-3.1
				c0-0.1,0-0.2,0-0.4c0.1-0.8-1.3-0.8-1.3,0c-0.1,1.3-1.2,2.3-2.5,2.2c-0.1,0-0.2,0-0.3,0c-1.2-0.4-1.9-1.8-1.5-3
				C-1927.9,3977.7-1929.1,3977.4-1929.4,3978.2L-1929.4,3978.2z"/>
			<path id="Контур_289" class="st6" d="M-1872.5,4012.4c2.4,2.1,7.2,4.1,10.1,1.9c0.7-0.5,0-1.6-0.7-1.1
				c-2.4,1.8-6.6,0-8.5-1.7C-1872.2,4010.9-1873.1,4011.8-1872.5,4012.4z"/>
			<path id="Контур_290" class="st6" d="M-1858.4,4018.9c-0.6-0.8-1.5-1.4-2.5-1.5c-0.1,0-0.3,0-0.4,0c-0.3,0-0.5,0-0.8,0.1
				c0.4-2.8-0.1-5.6-1.2-8.1c-1.2-2.4-3.6-4-6.3-4.1c-3-0.2-5.9,1.1-8.4,2.6c-2,1.3-6.5,5.3-8.7,2.3c-0.1-0.2-0.3-0.3-0.5-0.3
				c0-0.2,0.1-0.4,0.1-0.7c0.1-0.5,0-1.1,0.2-1.7c0.2-0.9,1-1.2,1.6-1.8c1.1-1.2,1.3-2.9,0.6-4.3c-0.8-1.3-2.4-1.7-3.7-1.2
				c-0.2,0.1-0.4,0.1-0.6,0.2c-0.1-0.3-0.3-0.6-0.4-0.9c-1.4-2.5-3.7-4.4-6.4-5.3c-3.1-1.1-6.4-1.2-9.5-0.3c-0.5,0.1-1,0.3-1.5,0.4
				c-1.9-1.6-4.6-1.7-6.6-0.3c-0.7,0.5,0,1.6,0.7,1.1c1.3-1,3.1-1.1,4.5-0.3c-0.6,0.3-1.2,0.7-1.7,1.2c-0.9,1-1.8,2.6-1.4,3.9
				c0.5,1.8,2.9,2.3,4.3,1.3c1.2-0.8,1.6-2.4,1.5-3.8c0-0.8-0.2-1.5-0.6-2.2c0.7-0.2,1.4-0.4,2.1-0.5c2.5-0.6,5-0.4,7.4,0.5
				c1.7,0.6,3.2,1.6,4.5,2.8c0.8,0.8,1.4,1.8,1.7,2.9c-0.7,0.4-1.1,1.2-1.1,2.1c0.2,1.2,2.1,1.6,2.6,0.5c0.3-0.7,0.3-1.4,0.1-2
				c1.4-0.7,3-0.3,2.9,1.5c-0.1,1.5-1.1,1.7-1.9,2.7c-0.6,0.8-0.8,1.7-0.8,2.6c-0.1,1.1-0.3,2.2-0.6,3.3c-0.8,3.1-3,5.7-5.9,7.2
				c-1.4,0.7-2.9,1-4.4,1c-0.6,0-1.2,0-1.8-0.1c-3.7-2.4-7-5.3-9.8-8.7c-3.9-5.2-6.6-11.2-7.8-17.6c-0.4-2-0.3-3.6,0.3-3.9
				c0.2-0.1,0.3-0.1,0.5-0.1c0.1,0,0.2,0,0.3,0c0.1,0,0.2,0,0.4,0l0,0c0.7,0,1.4-0.2,2.1-0.5c0.8-0.3,1.5-0.9,1.9-1.7
				c0.5-1.1-0.1-2.1-1-3.5c-0.3-0.5-0.7-1.1-1-1.8c-1.1-2-1.6-2.9-1.7-3.8c-0.2-1.8,0.6-3.3,1.9-5.8c0.7-1.4,1.6-2.7,2.6-4
				c1.2-1.5,2.5-3,4-4.3c1.7-1.7,3.5-3.2,5.5-4.5c3.4-2.1,3.7-2.3,3.7-2.3l0.5-0.3c1.3-0.7,2.2-1.2,2.6-2.3c0.4-1,0.3-2.2-0.3-3.1
				c-0.9-1-2.2-1.6-3.6-1.5c-0.5,0-0.9,0-1.4,0c-3.9,0.1-7.7,0.8-11.3,2.1c-3.4,1.2-6.6,2.7-9.7,4.6c-4.8,3-9,6.8-12.5,11.2
				c-3.4,4.4-6,9.4-7.6,14.8c-4.8,15.8,0.7,29.7,2.5,33.5c3.5,7.9,9.2,14.7,16.5,19.5c5,3.2,10.7,5.4,16.6,6.4
				c3,0.6,6.1,0.9,9.2,0.9c3.5,0,7-0.4,10.4-1.1c3.4-0.8,6.8-2,10-3.5c5.1-2.4,12.3-6.8,17.5-13.9
				C-1859.2,4023.5-1857.3,4020.8-1858.4,4018.9z M-1906.6,3997.6c0.1,0.9-0.1,1.8-0.6,2.5c-0.6,0.6-1.5,0.7-2.3,0.3
				c-0.7-0.5-0.4-1.4,0-2.1c0.5-1,1.4-1.8,2.5-2.3C-1906.8,3996.5-1906.7,3997-1906.6,3997.6L-1906.6,3997.6z M-1889.8,4002.7
				c0,0.1,0,0.2,0.1,0.3C-1889.8,4002.9-1889.8,4002.8-1889.8,4002.7z M-1891.9,4018.8c2.3-1.9,3.9-4.6,4.5-7.5
				c1.6,1.6,3.9,1.4,5.8,0.4c2.9-1.4,5.2-3.7,8.3-4.7c0.9-0.3,1.8-0.5,2.8-0.5c-0.1,1.8-1,3.5-2.4,4.7c-0.7,0.5,0.3,1.5,0.9,0.9
				c1.7-1.4,2.7-3.4,2.8-5.6c1.7,0.2,3.1,1.1,4.1,2.4c1.9,2.6,1.9,5.9,1.6,9c-0.3,0.2-0.7,0.4-1,0.7c-0.5,0.3-1,0.7-1.6,1.1
				c-1.2,0.7-2.5,1.3-3.8,1.8c-2.6,1.1-5.4,1.8-8.3,2.1l-0.1,0c-0.2,0-0.4,0.1-0.7,0.1c0,0,0-0.1-0.1-0.1c-2.3-3.3,0.4-7,3.7-8.3
				c0.8-0.3,0.4-1.6-0.4-1.3c-3.9,1.5-7.1,5.8-4.7,9.8c-1.3,0.1-2.6,0.2-4,0.2c-1.9,0-3.7-0.1-5.6-0.4c0.5-0.1,1.1-0.4,1.5-0.6
				c2.2-1.2,3.8-3.3,4.2-5.7c0.2-0.8-1.1-1.2-1.3-0.4c-0.4,2.1-1.7,3.9-3.6,4.9c-2.2,1.1-4.7,0.8-7,0.4c-0.9-0.3-1.7-0.7-2.5-1.1
				c0.7,0,1.3-0.1,2-0.3C-1894.8,4020.7-1893.2,4019.9-1891.9,4018.8L-1891.9,4018.8z M-1861.3,4023.8
				c-9.5,13.1-26.3,16.8-26.5,16.8c-6.3,1.3-12.8,1.4-19.1,0.2c-5.7-1-11.1-3.1-16-6.2c-7-4.6-12.5-11.1-15.9-18.8
				c-1.7-3.8-7-17.2-2.4-32.5c1.6-5.2,4.1-10,7.4-14.3c3.4-4.3,7.5-7.9,12.1-10.8c3-1.8,6.1-3.3,9.4-4.4c3.5-1.2,7.1-1.9,10.8-2
				c0.4,0,0.9,0,1.3,0c0.9-0.1,1.7,0.3,2.4,0.9c0.3,0.5,0.4,1.1,0.1,1.7c-0.2,0.6-0.7,0.9-1.9,1.5c-0.2,0.1-0.3,0.2-0.5,0.3
				c-0.1,0-1.3,0.8-3.8,2.3c-2.1,1.4-4,2.9-5.7,4.7c-1.5,1.4-2.9,2.9-4.2,4.5c-1,1.3-1.9,2.7-2.7,4.2c-1.4,2.7-2.3,4.5-2.1,6.7
				c0.2,1.2,0.8,2.3,1.8,4.3c0.4,0.7,0.7,1.3,1.1,1.8c0.7,1.2,1,1.8,0.9,2.1s-0.7,0.6-1.1,0.8c-0.5,0.2-0.9,0.3-1.4,0.3l0,0
				c-0.1,0-0.2,0-0.3,0s-0.2,0-0.3,0c-0.5,0-0.9,0.1-1.3,0.3c-1.6,1-1.3,3.9-1,5.6c0,0.3,0.1,0.5,0.2,0.8c-2.9,0.4-5.8-1.3-6.9-4
				c-0.3-0.8-1.5-0.1-1.1,0.7c1.5,3.2,4.9,5.1,8.4,4.6c1.4,5.9,4.1,11.4,7.7,16.2c2.8,3.4,6.1,6.4,9.9,8.9c0.2,0.2,0.3,0.3,0.6,0.3
				c2.4,1.5,5,2.6,7.8,3.3c0.5,0.1,1.1,0.2,1.3,0.3c2.7,0.5,5.5,0.8,8.2,0.8c2.1,0,4.2-0.2,6.3-0.5l0.1,0c3-0.3,5.9-1.1,8.7-2.2
				c1.4-0.5,2.7-1.2,3.9-1.9c0.7-0.4,1.2-0.8,1.7-1.1c0.7-0.6,1.5-1,2.3-1.1c0.1,0,0.2,0,0.2,0c0.5,0.1,1,0.3,1.3,0.7
				C-1859.3,4020.4-1859.8,4021.7-1861.3,4023.8L-1861.3,4023.8z"/>
			<g id="Сгруппировать_135">
				<path id="Контур_291" class="st7" d="M-1892.2,3973.8c-0.2-0.2-0.3-0.5-0.5-0.7c-0.2-0.2-0.5-0.4-0.7-0.5
					c-0.7-0.4-1.5-0.5-2.3-0.4c-1,0-1.9,0.6-2.3,1.5c-0.4,0.9-0.4,1.9-0.1,2.8c0.3,0.9,0.9,1.7,1.6,2.4c1.1,1,2.2,1.9,3.5,2.7
					c0.1,0.1,0.2,0.1,0.3,0.2c0.1,0,0.3,0,0.4-0.1c2.2-0.7,4-2.1,5.2-4.1c0.8-1.2,1-2.7,0.5-4c-0.5-1.1-1.7-1.8-2.9-1.5
					c-0.5,0.1-1,0.3-1.5,0.6C-1891.1,3972.9-1892.3,3973.7-1892.2,3973.8z"/>
				<path id="Контур_292" class="st8" d="M-1893.6,3982.6c-0.1,0-0.1,0-0.2,0c-0.2,0-0.4-0.1-0.5-0.2l-0.3-0.2
					c-1.1-0.7-2.1-1.5-3-2.3c-0.7-0.7-1.2-1.5-1.6-2.4c-0.3-1-0.3-2,0.1-2.9c0.5-1,1.5-1.7,2.6-1.7c0.8-0.1,1.7,0.1,2.4,0.4
					c0.3,0.2,0.5,0.3,0.8,0.6c0.1,0.1,0.1,0.1,0.2,0.2c0.3-0.2,0.5-0.4,0.8-0.6c0.5-0.3,1-0.5,1.5-0.7c0.2,0,0.4-0.1,0.6-0.1
					c1.1,0,2.1,0.7,2.6,1.7c0.8,1.7-0.2,3.6-0.5,4.1c-1.2,1.9-3,3.3-5.1,4C-1893.3,3982.6-1893.4,3982.6-1893.6,3982.6z
					 M-1896,3973.7c-0.1,0-0.3,0-0.4,0c-0.8,0-1.5,0.5-1.8,1.2c-0.3,0.7-0.3,1.5-0.1,2.3c0.3,0.8,0.7,1.5,1.3,2
					c0.9,0.8,1.8,1.6,2.9,2.2l0.3,0.2c0,0,0.1,0.1,0.2,0.1l0,0c0.1,0,0.1,0,0.2,0c1.9-0.6,3.5-1.9,4.6-3.6c0.7-1,0.8-2.2,0.5-3.3
					c-0.4-0.9-1.3-1.4-2.2-1.2c-0.4,0.1-0.9,0.3-1.2,0.5c-0.3,0.2-0.6,0.5-0.9,0.7c0,0.1-0.1,0.1-0.1,0.2c-0.2,0.2-0.4,0.2-0.6,0
					c0,0,0,0,0,0l0,0c-0.1-0.1-0.2-0.2-0.3-0.4c-0.1-0.1-0.1-0.2-0.2-0.2c-0.2-0.2-0.4-0.3-0.6-0.4
					C-1895,3973.8-1895.5,3973.6-1896,3973.7L-1896,3973.7z"/>
			</g>
			<g id="Сгруппировать_136">
				<path id="Контур_293" class="st7" d="M-1877.5,3986.4c-0.2-0.2-0.3-0.5-0.5-0.7c-0.2-0.2-0.5-0.4-0.7-0.5
					c-0.7-0.4-1.5-0.5-2.3-0.4c-1,0-1.9,0.6-2.3,1.5c-0.4,0.9-0.4,1.9-0.1,2.8c0.3,0.9,0.9,1.7,1.6,2.4c1.1,1,2.2,1.9,3.5,2.7
					c0.1,0.1,0.2,0.1,0.3,0.2c0.1,0,0.3,0,0.4-0.1c2.2-0.7,4-2.1,5.2-4.1c0.8-1.2,1-2.7,0.5-4c-0.5-1.1-1.7-1.8-2.9-1.5
					c-0.5,0.1-1,0.3-1.5,0.6C-1876.5,3985.5-1877.6,3986.3-1877.5,3986.4z"/>
				<path id="Контур_294" class="st8" d="M-1878.9,3995.2c-0.1,0-0.1,0-0.2,0c-0.2,0-0.4-0.1-0.5-0.2l-0.3-0.2
					c-1.1-0.7-2.1-1.5-3-2.3c-0.7-0.7-1.2-1.5-1.6-2.4c-0.3-1-0.3-2,0.1-2.9c0.5-1,1.5-1.7,2.6-1.7c0.8-0.1,1.7,0.1,2.4,0.4
					c0.3,0.2,0.5,0.4,0.8,0.6c0.1,0.1,0.1,0.1,0.2,0.2c0.3-0.2,0.5-0.4,0.8-0.6c0.5-0.3,1-0.5,1.5-0.7c0.2,0,0.4-0.1,0.6-0.1
					c1.1,0,2.1,0.7,2.6,1.7c0.8,1.7-0.2,3.6-0.5,4.1c-1.2,1.9-3,3.3-5.1,4C-1878.6,3995.2-1878.8,3995.2-1878.9,3995.2z
					 M-1881.3,3986.3c-0.1,0-0.3,0-0.4,0c-0.8,0-1.5,0.5-1.8,1.2c-0.3,0.7-0.3,1.5,0,2.3c0.3,0.8,0.7,1.5,1.3,2
					c0.9,0.8,1.8,1.6,2.8,2.2l0.3,0.2c0,0,0.1,0.1,0.2,0.1l0,0c0.1,0,0.1,0,0.2,0c1.9-0.6,3.5-1.9,4.6-3.6c0.7-1,0.8-2.2,0.5-3.3
					c-0.4-0.9-1.3-1.4-2.2-1.2c-0.4,0.1-0.9,0.3-1.2,0.5c-0.3,0.2-0.6,0.5-0.9,0.7c0,0.1-0.1,0.1-0.1,0.2c-0.2,0.2-0.4,0.2-0.6,0
					c0,0,0,0,0,0l0,0c-0.1-0.1-0.2-0.2-0.3-0.4c-0.1-0.1-0.1-0.2-0.2-0.2c-0.2-0.2-0.4-0.3-0.6-0.4
					C-1880.3,3986.4-1880.8,3986.2-1881.3,3986.3z"/>
			</g>
		</g>
	</g>
</g>
</svg>
