<svg xmlns="http://www.w3.org/2000/svg" width="98.995" height="98.995" viewBox="0 0 98.995 98.995"><g transform="translate(3809.668 -6817.767)"><circle cx="49.498" cy="49.498" r="49.498" transform="translate(-3809.668 6817.767)" fill="#fff"/><path d="M-3741.393,6869.627a5.625,5.625,0,0,0-1.921-.832l-.02,0a6.381,6.381,0,0,0-.645-.128c-.06-.149-.134-.319-.223-.514-.271-.594-.637-1.318-.96-1.956-.161-.32-.31-.614-.425-.849a25.939,25.939,0,0,1-2.3-7.658,24.951,24.951,0,0,1-.3-3.337v-.05l-.007-.049a5.205,5.205,0,0,1-.045-.715,4.622,4.622,0,0,1,.109-.987c.011-.049.022-.1.033-.141a6.21,6.21,0,0,1,.831-.094,10,10,0,0,0,1.563-.2,6.482,6.482,0,0,0,3.512-2.278,5,5,0,0,0,1.172-2.9c0-.088,0-.177,0-.267l-.014-.441-.359-.256a15.229,15.229,0,0,1-2.413-2.15,15.05,15.05,0,0,1-1.257-1.586l-.043-.064-.054-.054a6.064,6.064,0,0,0-2.134-1.433,7.234,7.234,0,0,0-2.115-.444c-.271-.019-.511-.023-.72-.02.107-.214.232-.468.377-.772.562-1.185.9-1.9.386-2.48-.639-.721-1.717-.215-2.177,0a14.067,14.067,0,0,0-1.572.894,12.418,12.418,0,0,0-2.339,2l-.036.039-.031.044c-.565.792-1.116,1.6-1.636,2.418s-1.169,1.827-1.859,3.148c-.477.912-.8,1.646-1.015,2.131l-.069.156c-.2-.455-.385-.9-.547-1.357l-.072-.2a13.106,13.106,0,0,0-1.992-3.961,6.715,6.715,0,0,0-.679-.751,10.725,10.725,0,0,0-7.1-2.655c-1.444-.09-3.625-.226-4.952,1.235a3.364,3.364,0,0,0-.431.6,7.907,7.907,0,0,1-.532.79,7.434,7.434,0,0,1-1.617,1.777,2.682,2.682,0,0,1-1.981.168,2.544,2.544,0,0,0-2.448.469c-1.03,1.073-.438,2.826,0,4.115.308.911,1.126,3.331,3.415,4.376a7.22,7.22,0,0,0,3.1.606c.383-.013.777-.019,1.158-.024l.65-.011h.013c.264-.006.5-.011.636-.006a6.312,6.312,0,0,1,.086,1.323c.009,2.1.016,3.485,0,3.679a21.637,21.637,0,0,1-.4,3.373,19.482,19.482,0,0,1-.944,2.959c-.414,1.111-.762,1.917-1.042,2.566a8.833,8.833,0,0,0-.812,2.461c-.277.048-.515.109-.717.161a5,5,0,0,0-2.507,1.229,4.4,4.4,0,0,0-1.2,2.48,4.677,4.677,0,0,0,.72,3.413,2.046,2.046,0,0,0,1.565.975h.022c.3,0,4.028.014,11.066.049h0a.893.893,0,0,0,.893-.893.893.893,0,0,0-.888-.893h0c-6.715-.033-10.42-.047-11.018-.048a1.431,1.431,0,0,1-.194-.232,2.914,2.914,0,0,1-.409-2.075,2.657,2.657,0,0,1,.694-1.51,3.392,3.392,0,0,1,1.693-.766c.113-.029.231-.059.356-.087a3.644,3.644,0,0,0,1.22,2.172c1,.816,2.607,1.164,3.458.3a2.062,2.062,0,0,0,.375-2.045c-.443-1.443-2.064-2.053-3.329-2.242a9.233,9.233,0,0,1,.645-1.745c.287-.667.645-1.5,1.075-2.65a21.275,21.275,0,0,0,1.016-3.2,23.3,23.3,0,0,0,.438-3.628c.017-.244.014-1.11,0-3.812,0-1.169-.01-2.273-.9-2.846-.422-.273-.755-.266-1.645-.248h-.013l-.64.01c-.389.006-.792.012-1.192.025a5.425,5.425,0,0,1-2.295-.445,5.341,5.341,0,0,1-2.468-3.332c-.047-.14-.114-.337-.183-.56a1.63,1.63,0,0,0,.845.23,1.378,1.378,0,0,0,1.471-1.26,1.1,1.1,0,0,0-.139-.531,3.534,3.534,0,0,0,1.7-.54,8.606,8.606,0,0,0,2.093-2.215,9.3,9.3,0,0,0,.638-.947,1.709,1.709,0,0,1,.22-.319c.751-.827,2.351-.727,3.52-.655a14.863,14.863,0,0,1,2.154.258,5.593,5.593,0,0,1,.311,1,4.582,4.582,0,0,1,.088.653,3.843,3.843,0,0,1-.033.7c-.01.057-.015.124-.028.174-.013.07-.026.145-.041.195l-.022.086-.027.093c-.016.062-.039.126-.059.189a6.228,6.228,0,0,1-.318.771,4.174,4.174,0,0,1-.429.719c-.086.112-.2.256-.3.4s-.209.3-.309.449c-.2.29-.389.585-.585.913-.1.165-.2.339-.292.529a5.035,5.035,0,0,0-.246.607,5.9,5.9,0,0,0-.294,1.234,3.762,3.762,0,0,0-.019.709,3.259,3.259,0,0,0,.135.742c.02.062.04.123.062.184l.077.181a1.745,1.745,0,0,0,.088.176l.048.086.024.043.012.021.018.029,0,.007c.029.043.041.065.093.138.022.029.045.063.066.089l.062.077a3.217,3.217,0,0,0,.267.282,3.921,3.921,0,0,0,1.187.732c.123.053.225.083.335.121s.218.063.327.086a4.731,4.731,0,0,0,.657.09,4.287,4.287,0,0,0,1.287-.111l.16-.043.162-.053.083-.031.108-.043.116-.056c.014-.006.053-.028.08-.042l.088-.048a1.717,1.717,0,0,0,.154-.1,2.858,2.858,0,0,0,.265-.205,3.511,3.511,0,0,0,.753-.944,5.178,5.178,0,0,0,.594-1.915,6.732,6.732,0,0,0-.014-1.613,7.194,7.194,0,0,0-.253-1.187,6.623,6.623,0,0,0-.263-.725l-.112-.248.011.27.009.322c0,.127.005.27,0,.431a10.014,10.014,0,0,1-.082,1.139c-.029.216-.062.443-.116.677a6.435,6.435,0,0,1-.193.719,5.5,5.5,0,0,1-.294.727,3.734,3.734,0,0,1-.416.675,3.061,3.061,0,0,1-.255.287,2.121,2.121,0,0,1-.283.228,1.477,1.477,0,0,1-.147.083.476.476,0,0,1-.065.031l-.025.01a.143.143,0,0,1-.034.014l-.12.045c.011-.005-.034.013.022-.009h0l-.01,0-.02,0-.038.01-.088.018-.093.014a3.169,3.169,0,0,1-.816,0,2.872,2.872,0,0,1-.4-.087c-.066-.017-.13-.039-.194-.061s-.132-.049-.175-.072a2.437,2.437,0,0,1-.665-.433,1.4,1.4,0,0,1-.11-.123l-.024-.032-.016-.022s-.032-.047-.055-.081c0,0,0,0,0-.005l-.005-.009-.009-.018-.019-.035a.391.391,0,0,1-.035-.072c-.011-.025-.021-.05-.033-.075l-.024-.079a1.368,1.368,0,0,1-.065-.346,2.209,2.209,0,0,1,0-.4,3.956,3.956,0,0,1,.066-.434c.016-.075.033-.151.053-.229l.032-.118.035-.127a3.584,3.584,0,0,1,.143-.408c.056-.138.124-.282.2-.43.15-.295.322-.6.482-.909.078-.147.156-.289.235-.427l.257-.437c.048-.083.1-.174.14-.263.021-.042.046-.095.064-.135l.055-.125c.073-.173.132-.339.184-.506a6.555,6.555,0,0,0,.234-1c.01-.083.023-.164.029-.247l.012-.123.008-.13c.007-.092,0-.16,0-.231a2.3,2.3,0,0,0-.01-.245,4.249,4.249,0,0,0-.15-.882,4.547,4.547,0,0,0-.288-.731,4.878,4.878,0,0,0-.376-.632,7.364,7.364,0,0,1,3.239,1.765,4.8,4.8,0,0,1,.5.549,11.321,11.321,0,0,1,1.728,3.472l.071.2c.259.725.57,1.424.872,2.1.129.289.261.584.387.88a136.238,136.238,0,0,0-5.5,15.612,10.051,10.051,0,0,0-.35,5.884,7.368,7.368,0,0,0,3.11,4.358,7.187,7.187,0,0,0,7.455.147,7.38,7.38,0,0,0,3.121-4.429,10.161,10.161,0,0,0-.057-5.424,68.709,68.709,0,0,0-4.063-11.78c-.573-1.373-1.164-2.793-1.776-4.353.265-.613.484-1.1.646-1.466l.09-.205c.205-.464.514-1.165.964-2.025.654-1.252,1.253-2.187,1.781-3.013.494-.772,1.017-1.545,1.553-2.3a10.587,10.587,0,0,1,1.967-1.672c.215-.142.429-.273.632-.391-.114.235-.215.436-.3.606-.391.779-.673,1.341-.272,1.947a1.442,1.442,0,0,0,1.471.512,6.9,6.9,0,0,1,1.064-.009,5.44,5.44,0,0,1,1.595.326,4.274,4.274,0,0,1,1.456.967,17.065,17.065,0,0,0,1.358,1.707,17.057,17.057,0,0,0,1.29,1.276.649.649,0,0,0-.209.455c0,.415.47.762,1.1.861a3.827,3.827,0,0,1-.65,1.121,4.663,4.663,0,0,1-2.509,1.643,8.588,8.588,0,0,1-1.292.16c-.887.063-1.893.135-2.3,1.03a2.951,2.951,0,0,0-.173.581,6.465,6.465,0,0,0-.154,1.376,7.037,7.037,0,0,0,.054.915,26.464,26.464,0,0,0,.316,3.528,28,28,0,0,0,2.46,8.165c.118.241.27.543.436.87.22.435.543,1.076.8,1.622a3.738,3.738,0,0,0-1.653.473,2.911,2.911,0,0,0-1.633,2.539,1.877,1.877,0,0,0,.546,1.184,2.174,2.174,0,0,0,1.642.55,3.541,3.541,0,0,0,2.456-1.165,3.553,3.553,0,0,0,.773-1.691l.048.011.02.006a3.845,3.845,0,0,1,1.329.558,3.154,3.154,0,0,1,1.471,2.326,2.676,2.676,0,0,1-.59,1.865c-.409.434-2.7.476-5.352.524-.49.009-1.062.007-1.724,0-1.035,0-2.322-.009-3.746.031v.02a.865.865,0,0,0-.186-.02.892.892,0,0,0-.893.892.893.893,0,0,0,.893.893.914.914,0,0,0,.235-.032v.032c1.4-.04,2.614-.035,3.689-.031.673,0,1.254,0,1.763,0,3.792-.069,5.7-.1,6.62-1.086a4.436,4.436,0,0,0,1.072-3.193A4.888,4.888,0,0,0-3741.393,6869.627Zm-31.771,2.461a.743.743,0,0,1,.033.237,1.81,1.81,0,0,1-1.031-.4,1.665,1.665,0,0,1-.5-.761C-3773.934,6871.332-3773.293,6871.669-3773.164,6872.088Zm14.162-17.017a67.35,67.35,0,0,1,3.972,11.5,8.461,8.461,0,0,1,.083,4.517,5.634,5.634,0,0,1-2.34,3.412,5.368,5.368,0,0,1-5.566-.132,5.631,5.631,0,0,1-2.351-3.344,8.452,8.452,0,0,1,.35-4.9,136.634,136.634,0,0,1,4.738-13.745C-3759.736,6853.31-3759.365,6854.2-3759,6855.071Zm13.058,15.96a1.6,1.6,0,0,1-1.5.507.248.248,0,0,1-.018-.079c-.021-.218.377-.607.747-.82a2.243,2.243,0,0,1,1.093-.252A1.628,1.628,0,0,1-3745.944,6871.031Z" fill="#6d6f72"/><path d="M-3773.063,6843.716c-.8-.081-1.561.749-1.471.945.067.146.564-.147,1.3,0,1.006.2,1.455,1.036,1.575.945C-3771.5,6845.487-3772,6843.825-3773.063,6843.716Z" fill="#6d6f72"/><path d="M-3748,6845.256c.762.018,1.184.4,1.26.28.1-.157-.572-1.093-1.4-1.085a1.959,1.959,0,0,0-1.226.665c-.264.236-.632.639-.56.735C-3749.824,6845.986-3749.075,6845.231-3748,6845.256Z" fill="#6d6f72"/><path d="M-3779.659,6883.974a3.37,3.37,0,0,0-1.467-.305h-2.893v7.223h1.821v-2.415h1.043a3.153,3.153,0,0,0,2.079-.636,2.12,2.12,0,0,0,.765-1.7,2.394,2.394,0,0,0-.353-1.286A2.329,2.329,0,0,0-3779.659,6883.974Zm-1.467,3.073h-1.072V6885.1h1.091a.912.912,0,0,1,.695.286,1.1,1.1,0,0,1,.255.762.878.878,0,0,1-.245.666A1.016,1.016,0,0,1-3781.126,6887.047Z" fill="#6d6f72"/><path d="M-3776.751,6890.892h5.008v-1.425h-3.187v-1.6h2.7v-1.376h-2.7v-1.4h3.2v-1.43h-5.018Z" fill="#6d6f72"/><path d="M-3770.662,6885.1h2.1v5.793h1.821V6885.1h2.136v-1.43h-6.055Z" fill="#6d6f72"/><path d="M-3763.565,6886.193h1.113l.165-2.071v-.845h-1.278Z" fill="#6d6f72"/><path d="M-3757.768,6883.669h-1.687l-2.649,7.223h1.947l.411-1.33h2.274l.415,1.33h1.957l-2.656-7.189Zm-.147,4.463h-1.388l.691-2.239Z" fill="#6d6f72"/><path d="M-3752.137,6883.668h-1.821v7.223h4.808v-1.425h-2.987Z" fill="#6d6f72"/><path d="M-3743.886,6888.5l-1.539-4.8-.012-.037h-2.344v7.223h1.821v-1.717l-.148-3.034,1.617,4.751h1.209l1.613-4.746-.148,3.031v1.715h1.826v-7.223h-2.349Z" fill="#6d6f72"/><rect width="1.816" height="7.223" transform="translate(-3738.138 6883.668)" fill="#6d6f72"/></g></svg>