<svg xmlns="http://www.w3.org/2000/svg" width="217.489" height="217.489" viewBox="0 0 217.489 217.489">
  <g id="Сгруппировать_326" data-name="Сгруппировать 326" transform="translate(4089 -3929.57)">
    <circle id="Эллипс_8" data-name="Эллипс 8" cx="108.745" cy="108.745" r="108.745" transform="translate(-4089 3929.57)" fill="#fff"/>
    <g id="Сгруппировать_61" data-name="Сгруппировать 61">
      <path id="Контур_138" data-name="Контур 138" d="M-3929.7,4046.059a14.4,14.4,0,0,0-4.92-2.129l-.052-.013a16.727,16.727,0,0,0-1.653-.329c-.154-.38-.343-.816-.571-1.315-.7-1.523-1.631-3.376-2.458-5.011-.414-.819-.8-1.573-1.09-2.176a66.468,66.468,0,0,1-5.892-19.617,63.7,63.7,0,0,1-.758-8.546l0-.128-.016-.127a13.044,13.044,0,0,1-.115-1.832,12.023,12.023,0,0,1,.277-2.528l.085-.361a16.06,16.06,0,0,1,2.13-.239,25.722,25.722,0,0,0,4-.512,16.617,16.617,0,0,0,9-5.833,12.81,12.81,0,0,0,3-7.441c.008-.226.008-.456,0-.685l-.036-1.129-.918-.657a38.989,38.989,0,0,1-6.183-5.506,38.985,38.985,0,0,1-3.218-4.064l-.111-.162-.138-.141a15.549,15.549,0,0,0-5.466-3.67,18.6,18.6,0,0,0-5.418-1.136c-.695-.05-1.31-.061-1.845-.052.274-.547.6-1.2.966-1.978,1.439-3.035,2.307-4.867.989-6.353-1.638-1.846-4.4-.549-5.576.005a35.7,35.7,0,0,0-4.026,2.292,31.657,31.657,0,0,0-5.993,5.122l-.092.1-.079.111c-1.449,2.028-2.858,4.112-4.19,6.194s-2.995,4.68-4.763,8.064c-1.222,2.337-2.051,4.216-2.6,5.459l-.176.4c-.51-1.165-.987-2.307-1.4-3.477l-.183-.514a33.561,33.561,0,0,0-5.1-10.146,16.748,16.748,0,0,0-1.738-1.922c-6.3-6.064-14.333-6.564-18.192-6.8-3.7-.23-9.284-.578-12.684,3.166a8.628,8.628,0,0,0-1.1,1.547,20.168,20.168,0,0,1-1.363,2.024c-1.49,1.98-2.777,3.691-4.142,4.55-1.588,1-3.281.724-5.073.432-1.973-.32-4.428-.72-6.272,1.2-2.638,2.748-1.121,7.238-.005,10.538.789,2.335,2.884,8.535,8.749,11.212a18.517,18.517,0,0,0,7.93,1.55c.981-.033,1.99-.047,2.966-.062q.834-.012,1.666-.027h.032c.676-.013,1.283-.026,1.63-.015a16.2,16.2,0,0,1,.22,3.389c.024,5.377.04,8.928.006,9.424a55.378,55.378,0,0,1-1.03,8.642,49.9,49.9,0,0,1-2.419,7.578c-1.06,2.846-1.952,4.912-2.668,6.573a22.682,22.682,0,0,0-2.081,6.306c-.709.121-1.318.278-1.836.411a12.817,12.817,0,0,0-6.423,3.148,11.291,11.291,0,0,0-3.065,6.354,11.983,11.983,0,0,0,1.845,8.742,5.244,5.244,0,0,0,4.008,2.5h.055c.781-.006,10.319.035,28.348.124h.011a2.286,2.286,0,0,0,2.286-2.287,2.286,2.286,0,0,0-2.275-2.286h0c-17.2-.085-26.692-.12-28.223-.124a3.6,3.6,0,0,1-.5-.593,7.471,7.471,0,0,1-1.047-5.314,6.791,6.791,0,0,1,1.777-3.868c1.155-1.148,2.559-1.508,4.338-1.964.29-.074.592-.152.913-.222a9.317,9.317,0,0,0,3.125,5.563c2.562,2.091,6.677,2.983,8.856.776a5.284,5.284,0,0,0,.963-5.238c-1.137-3.7-5.29-5.259-8.53-5.743a23.977,23.977,0,0,1,1.652-4.471c.737-1.708,1.654-3.833,2.755-6.787a54.548,54.548,0,0,0,2.6-8.2,59.742,59.742,0,0,0,1.123-9.292c.044-.626.036-2.845.005-9.766-.013-2.993-.025-5.821-2.3-7.291-1.081-.7-1.934-.68-4.214-.635h-.032c-.547.011-1.093.019-1.64.027-1,.014-2.028.029-3.053.063a13.929,13.929,0,0,1-5.879-1.139c-4.064-1.856-5.641-6.523-6.322-8.537-.121-.357-.292-.864-.469-1.434a4.181,4.181,0,0,0,2.166.59,3.528,3.528,0,0,0,3.766-3.228,2.832,2.832,0,0,0-.355-1.36,9.02,9.02,0,0,0,4.352-1.385c2.078-1.307,3.673-3.427,5.362-5.671a24.708,24.708,0,0,0,1.634-2.428,4.442,4.442,0,0,1,.563-.817c1.923-2.118,6.022-1.863,9.015-1.677a38.23,38.23,0,0,1,5.519.661,14.4,14.4,0,0,1,.8,2.56,11.637,11.637,0,0,1,.225,1.675,9.378,9.378,0,0,1-.085,1.8c-.025.147-.037.32-.07.447-.033.179-.066.371-.105.5l-.056.218-.068.239c-.043.16-.1.322-.152.483a15.919,15.919,0,0,1-.815,1.976,10.925,10.925,0,0,1-1.1,1.842c-.22.287-.512.656-.78,1.034s-.537.764-.794,1.15c-.5.742-.994,1.5-1.5,2.34-.251.421-.5.868-.747,1.354a12.5,12.5,0,0,0-.629,1.557,15.123,15.123,0,0,0-.754,3.16,9.551,9.551,0,0,0-.047,1.814,8.3,8.3,0,0,0,.345,1.9c.05.158.1.316.158.473l.2.462a4.064,4.064,0,0,0,.225.451l.122.22.062.11.031.055.045.073.012.019c.073.109.1.167.238.352.056.076.115.161.169.23l.158.195a7.715,7.715,0,0,0,.684.722,10.033,10.033,0,0,0,3.04,1.876c.315.137.578.214.859.31s.558.161.839.222a12.068,12.068,0,0,0,1.683.229,10.956,10.956,0,0,0,3.295-.285l.41-.11.414-.134.213-.08.278-.111.3-.143c.036-.016.137-.07.206-.107l.225-.125a4.564,4.564,0,0,0,.394-.247,7.724,7.724,0,0,0,.68-.526,9.018,9.018,0,0,0,1.929-2.416,13.245,13.245,0,0,0,1.519-4.908,17.136,17.136,0,0,0-.034-4.13,18.507,18.507,0,0,0-.649-3.042,17.275,17.275,0,0,0-.672-1.857l-.288-.633.029.692.023.823c0,.324.011.692,0,1.1a26.132,26.132,0,0,1-.208,2.918c-.075.553-.161,1.134-.3,1.734a16.577,16.577,0,0,1-.5,1.842,13.882,13.882,0,0,1-.753,1.861,9.539,9.539,0,0,1-1.066,1.728,8.313,8.313,0,0,1-.654.737,5.448,5.448,0,0,1-.723.583,3.652,3.652,0,0,1-.377.212,1.039,1.039,0,0,1-.166.08l-.064.026a.631.631,0,0,1-.087.037l-.308.113c.027-.011-.088.035.055-.023l-.012,0-.026.006-.05.012-.1.026-.223.045-.239.037a8.216,8.216,0,0,1-2.09,0,7.474,7.474,0,0,1-1.036-.222c-.169-.045-.333-.1-.5-.156s-.338-.125-.446-.184a6.217,6.217,0,0,1-1.7-1.111,3.147,3.147,0,0,1-.282-.313l-.064-.082-.04-.057c-.009,0-.083-.121-.14-.209,0,0,0,0-.007-.012l-.011-.023-.024-.045-.048-.091a1.039,1.039,0,0,1-.091-.185c-.026-.064-.054-.127-.082-.19l-.064-.2a3.67,3.67,0,0,1-.166-.886,5.6,5.6,0,0,1,.009-1.017,9.914,9.914,0,0,1,.168-1.112c.041-.193.085-.388.137-.588l.08-.3.091-.325a9.324,9.324,0,0,1,.366-1.045c.144-.353.318-.722.509-1.1.385-.757.825-1.546,1.235-2.329.2-.376.4-.74.6-1.093l.659-1.121c.122-.213.248-.445.358-.671.054-.109.118-.245.164-.347l.14-.321c.186-.443.338-.867.472-1.3a16.573,16.573,0,0,0,.6-2.55c.027-.213.06-.421.077-.633l.03-.314.02-.334c.018-.236.014-.409.014-.591a5.99,5.99,0,0,0-.027-.629,10.7,10.7,0,0,0-.385-2.258,11.689,11.689,0,0,0-.735-1.873,12.615,12.615,0,0,0-.964-1.619,18.863,18.863,0,0,1,8.3,4.521,12.343,12.343,0,0,1,1.278,1.407,29.017,29.017,0,0,1,4.425,8.894l.184.519c.661,1.858,1.46,3.648,2.233,5.38.33.741.667,1.5.991,2.253a349.106,349.106,0,0,0-14.1,39.992c-1.166,4.052-2.617,9.1-.9,15.073a18.862,18.862,0,0,0,7.966,11.162,18.414,18.414,0,0,0,19.1.378c5.676-3.475,7.36-9.194,7.994-11.347,1.584-5.382.756-9.994-.145-13.893-2.7-11.673-6.271-20.248-10.41-30.176-1.466-3.517-2.982-7.153-4.55-11.149.681-1.572,1.242-2.83,1.655-3.756l.233-.525c.524-1.189,1.317-2.984,2.469-5.188,1.676-3.206,3.209-5.6,4.562-7.717,1.265-1.979,2.6-3.959,3.979-5.888a27.093,27.093,0,0,1,5.036-4.284c.551-.363,1.1-.7,1.62-1-.292.6-.55,1.115-.768,1.551-1,2-1.724,3.436-.7,4.988,1,1.5,2.6,1.392,3.769,1.311a17.794,17.794,0,0,1,2.725-.023,14,14,0,0,1,4.087.836,10.947,10.947,0,0,1,3.728,2.475,43.561,43.561,0,0,0,3.479,4.373,43.44,43.44,0,0,0,3.306,3.27,1.662,1.662,0,0,0-.536,1.166c0,1.062,1.2,1.952,2.829,2.2a9.733,9.733,0,0,1-1.664,2.871,11.945,11.945,0,0,1-6.426,4.21,21.923,21.923,0,0,1-3.312.409c-2.272.163-4.847.347-5.9,2.639a7.522,7.522,0,0,0-.442,1.489,16.6,16.6,0,0,0-.4,3.525,17.662,17.662,0,0,0,.138,2.342,68.044,68.044,0,0,0,.809,9.038,71.78,71.78,0,0,0,6.3,20.914c.3.619.693,1.391,1.117,2.231.563,1.113,1.392,2.754,2.057,4.155a9.563,9.563,0,0,0-4.233,1.209c-1.071.617-4.536,2.908-4.184,6.506a4.8,4.8,0,0,0,1.4,3.032,5.576,5.576,0,0,0,4.207,1.409,9.069,9.069,0,0,0,6.291-2.985,9.069,9.069,0,0,0,1.98-4.332l.122.03.053.014a9.882,9.882,0,0,1,3.405,1.431,8.077,8.077,0,0,1,3.767,5.956,6.845,6.845,0,0,1-1.512,4.778c-1.047,1.112-6.915,1.219-13.71,1.342-1.254.023-2.718.018-4.415.011-2.65-.01-5.949-.023-9.6.079v.051a2.281,2.281,0,0,0-.478-.051,2.286,2.286,0,0,0-2.287,2.286,2.287,2.287,0,0,0,2.287,2.287,2.318,2.318,0,0,0,.6-.083l0,.082c3.573-.1,6.695-.089,9.449-.078,1.724.007,3.212.012,4.516-.011,9.715-.177,14.591-.265,16.958-2.782a11.368,11.368,0,0,0,2.746-8.179A12.53,12.53,0,0,0-3929.7,4046.059Zm-81.384,6.306a1.966,1.966,0,0,1,.085.607,4.628,4.628,0,0,1-2.64-1.033,4.243,4.243,0,0,1-1.274-1.95C-4013.059,4050.429-4011.417,4051.29-4011.087,4052.365Zm36.277-43.591c4.059,9.737,7.565,18.147,10.175,29.445.8,3.487,1.485,7.252.213,11.572-.544,1.851-1.82,6.183-5.994,8.739a13.751,13.751,0,0,1-14.259-.339,14.435,14.435,0,0,1-6.023-8.566c-1.356-4.712-.159-8.873.9-12.544a350.349,350.349,0,0,1,12.138-35.21C-3976.69,4004.264-3975.74,4006.542-3974.81,4008.774Zm33.45,40.884c-1.175,1.357-3.342,1.616-3.841,1.3a.647.647,0,0,1-.045-.2c-.055-.557.965-1.554,1.914-2.1a5.708,5.708,0,0,1,2.8-.644A4.179,4.179,0,0,1-3941.36,4049.658Z" fill="#eb4125"/>
      <path id="Контур_139" data-name="Контур 139" d="M-4010.829,3979.688c-2.049-.209-4,1.92-3.766,2.421.171.373,1.445-.377,3.318,0,2.577.518,3.728,2.654,4.035,2.421C-4006.838,3984.224-4008.1,3979.966-4010.829,3979.688Z" fill="#eb4125"/>
      <path id="Контур_140" data-name="Контур 140" d="M-3946.626,3983.633c1.953.047,3.035,1.01,3.229.718.265-.4-1.465-2.8-3.587-2.78a5.017,5.017,0,0,0-3.139,1.7c-.676.6-1.62,1.636-1.434,1.883C-3951.3,3985.5-3949.382,3983.568-3946.626,3983.633Z" fill="#eb4125"/>
      <path id="Контур_141" data-name="Контур 141" d="M-4027.723,4082.812a8.659,8.659,0,0,0-3.759-.783h-7.41v18.5h4.665v-6.186h2.67a8.088,8.088,0,0,0,5.327-1.628,5.426,5.426,0,0,0,1.958-4.367,6.148,6.148,0,0,0-.9-3.3A5.973,5.973,0,0,0-4027.723,4082.812Zm-3.759,7.87h-2.745v-4.99h2.794a2.321,2.321,0,0,1,1.78.732,2.816,2.816,0,0,1,.654,1.951,2.257,2.257,0,0,1-.628,1.706A2.6,2.6,0,0,1-4031.482,4090.682Z" fill="#eb4125"/>
      <path id="Контур_142" data-name="Контур 142" d="M-4020.276,4100.531h12.829v-3.65h-8.165v-4.089h6.913v-3.525h-6.913v-3.575h8.19v-3.663h-12.854Z" fill="#eb4125"/>
      <path id="Контур_143" data-name="Контур 143" d="M-4004.677,4085.692h5.372v14.839h4.664v-14.839h5.472v-3.663h-15.509Z" fill="#eb4125"/>
      <path id="Контур_144" data-name="Контур 144" d="M-3986.5,4088.5h2.851l.424-5.306v-2.163h-3.274Z" fill="#eb4125"/>
      <path id="Контур_145" data-name="Контур 145" d="M-3971.65,4082.029h-4.32l-6.786,18.5h4.988l1.052-3.406h5.825l1.065,3.406h5.013l-6.8-18.414Zm-.376,11.433h-3.555l1.772-5.735Z" fill="#eb4125"/>
      <path id="Контур_146" data-name="Контур 146" d="M-3957.225,4082.029h-4.664v18.5h12.316v-3.65h-7.651Z" fill="#eb4125"/>
      <path id="Контур_147" data-name="Контур 147" d="M-3936.089,4094.408l-3.941-12.286-.03-.094h-6.005v18.5h4.664v-4.4l-.379-7.773,4.143,12.172h3.1l4.131-12.157-.379,7.765v4.392h4.677v-18.5h-6.018Z" fill="#eb4125"/>
      <rect id="Прямоугольник_27" data-name="Прямоугольник 27" width="4.652" height="18.502" transform="translate(-3921.364 4082.029)" fill="#eb4125"/>
    </g>
  </g>
</svg>
